<svg height="122.519" viewBox="0 0 246.261 122.519" width="246.261" xmlns="http://www.w3.org/2000/svg"><g fill="#fff4e7"><path d="m673.435 348.575c-3.924-5.175-13.012 4.559-21.12 14.392a66.1 66.1 0 0 1 -8.781 8.546c4.77-9.294 1.523-16.606.385-24.555s1.175-14.072 2.576-17.874 3.365-8.236-.789-9.848-5.687-.594-12.858 10.713c-5.4 8.521-4 8.8-13.681 25.911s-12.492 21.125-15.025 20.847-1.066-6.823-.018-12.032 3.775-16.045 5.1-22.449-.08-6.472-3.6-6.96-5.275 1.274-5.763 3.878-1.326 6.826-1.326 6.826c-3.1-4.568-4.495-7.022-12.816-7.649-10.061-.759-18.636 5.3-21.99 20.787a69.713 69.713 0 0 0 -1.359 8.591c-1.875 3.753-6.514 10.525-11.809 17.318-6.105 7.834-14.143 12.641-18.692 11.516-6.185-1.529-3-14.157-3-14.157 3.8-.568 16.645-3.4 22-13.752 4.971-9.608 1.52-18.365-7.275-19.126s-18.565 5.515-23.464 23.041-.17 27.225 10.315 28.9c10.371 1.657 23.586-8.967 32.156-25.146 1.156 6.411 4.922 10.574 12.709 11.008 7.166.4 13.272-6.306 17.427-12.691 0 0 1.279 6.965 8.1 7.658s10.9-3.886 15.811-12.546 16.98-30.77 16.98-30.77a123.84 123.84 0 0 0 2.072 14.418c1.488 6.9 2.275 16.111-.533 19.915s-4.989 4.3-7.522 4.162-4.366-2.948-4.931-4.073-3.1-2.81-5.066-.626 1.56 8.3 9.581 8.921 12.45-2.2 19.9-7.628c0 0 1.623-1.508 3.961-3.707l.034-.112-.034.112c-1.819 5.935-6.4 16.764-16.124 23.732-10.224 7.33-25.317 10.165-45.23 10.267s-43.931 2.051-61.386 13.722-16.576 14.5-16.582 14.989.528 2.751 2.806.669 10.024-13.805 39.352-18.432 56.383-.169 72.577-8.445c15.721-8.034 20.566-18.457 24.806-25.51 3.951-6.572 5.281-15.821 11.542-21.76l1.117-.96c6.859-4.759 12.917-5.482 9.467-10.031zm-139.173 15.572c3.785-9.855 8.778-10.988 9.764-10.568s3.805 4.215-.123 11.89-13.844 10.574-13.844 10.574.419-2.043 4.203-11.896zm58.181-1.376c-1.673 10.672-12.847 19.038-16.083 18.973s-5.284-4.847-2.562-19.907 7.55-17.807 12.849-17.4c8.021.625 7.469 7.663 5.796 18.334z" transform="translate(-428.173 -317.564)"/><path d="m773.818 321.363c2.956 1.192.842 4.78 2.611 5.106 3.167.584 3.717-7.789 1.041-9.614s-4.5-.415-4.5-.415c-2.393 1.48-.407 4.417.848 4.923z" transform="translate(-585.657 -315.92)"/><path d="m361.786 406.056s18.07-7.273 19.032-22.823c.383-6.19-2.426-22.651-23.743-23.041s-36.064 19.049-38.015 31.153a43.753 43.753 0 0 0 -.515 9.672 38.421 38.421 0 0 0 1.99 9.879c1.166 3.472 3.31 6.931 7.5 6.185 4.783-.851 4.216-3.594 2.946-5.7-.918-1.525-4.867-8.154-2.774-20.187 2.5-14.361 15.438-26.546 28.6-25.722 10.206.64 18.025 9.471 13.331 22.634-3.776 10.588-16.479 15.362-21.307 16.825a113.78 113.78 0 0 1 6.743-17.084c4.7-10.138 4.766-11.9 3.076-13.154-2.679-1.992-7.249-2.419-12.231 6.734s-6.7 15.312-9.42 29.246c-2.322 11.884-5.685 26.842-9.218 35.173a48.043 48.043 0 0 0 -11.522-1.376c-8.231.056-16.386 4.175-16.376 11.21.009 6.051 4.727 8.928 9.564 9.413 6.167.619 14.4-.338 22.236-9.038a22.493 22.493 0 0 0 2.3-3.1c2.625.81 5.664 1.715 9.587 2.659 13.372 3.216 29.341 2.208 36.568-10.608 8.32-14.757 2.412-32.719-18.352-38.95zm-50.24 54.494c-5.479-.337-6.249-3.053-6.321-4.739-.128-2.955 3.947-6.274 10.579-6.242a45.383 45.383 0 0 1 9.5.933c-3.227 4.885-8.404 10.377-13.757 10.048zm57.854-19.82c-8.287 12.986-24.7 9.474-32.862 7.31 4.079-9.329 6.382-22.286 9.361-32.954.563-2.016 1.064-3.8 1.526-5.409a48.048 48.048 0 0 1 11.438 1c8.374 1.606 19.908 15.369 10.537 30.052z" transform="translate(-299.878 -342.723)"/></g></svg>