<svg height="70.174" viewBox="0 0 141.05 70.174" width="141.05" xmlns="http://www.w3.org/2000/svg"><g fill="#3f4c60"><path d="m604.362 335.784c-2.248-2.964-7.453 2.611-12.1 8.243a37.859 37.859 0 0 1 -5.03 4.895c2.732-5.323.872-9.511.221-14.064a19.922 19.922 0 0 1 1.476-10.237c.8-2.177 1.927-4.717-.452-5.641s-3.257-.34-7.365 6.136c-3.1 4.88-2.29 5.04-7.836 14.841s-7.155 12.1-8.606 11.941-.61-3.908-.01-6.892 2.162-9.19 2.923-12.858-.046-3.707-2.061-3.986a2.612 2.612 0 0 0 -3.3 2.221c-.28 1.492-.76 3.91-.76 3.91-1.777-2.617-2.575-4.022-7.341-4.381-5.763-.435-10.674 3.038-12.6 11.906a39.933 39.933 0 0 0 -.778 4.921 73.647 73.647 0 0 1 -6.764 9.919c-3.5 4.487-8.1 7.24-10.706 6.6-3.542-.876-1.719-8.109-1.719-8.109 2.175-.326 9.534-1.948 12.6-7.877 2.847-5.5.871-10.519-4.167-10.954s-10.634 3.159-13.44 13.2-.1 15.594 5.908 16.553c5.94.949 13.509-5.136 18.418-14.4.662 3.672 2.819 6.056 7.28 6.305 4.1.229 7.6-3.612 9.982-7.269 0 0 .732 3.989 4.642 4.386s6.243-2.226 9.056-7.186 9.725-17.624 9.725-17.624a70.925 70.925 0 0 0 1.181 8.257c.852 3.95 1.3 9.228-.305 11.406s-2.857 2.462-4.308 2.384-2.5-1.689-2.824-2.333a1.793 1.793 0 0 0 -2.9-.358c-1.127 1.251.894 4.754 5.488 5.11s7.131-1.26 11.4-4.369c0 0 .93-.864 2.269-2.123l.02-.064-.02.064c-1.042 3.4-3.667 9.6-9.235 13.593-5.856 4.2-14.5 5.822-25.906 5.88s-25.162 1.175-35.16 7.86-9.494 8.3-9.5 8.585.3 1.576 1.607.383 5.742-7.907 22.539-10.557 32.294-.1 41.57-4.837c9-4.6 11.78-10.571 14.208-14.611 2.263-3.764 3.025-9.062 6.611-12.463l.64-.55c3.934-2.74 7.404-3.151 5.429-5.756zm-79.714 8.916c2.168-5.645 5.028-6.294 5.592-6.053s2.18 2.414-.07 6.81-7.929 6.056-7.929 6.056a64.783 64.783 0 0 1 2.407-6.813zm33.324-.788c-.958 6.113-7.358 10.9-9.212 10.867s-3.026-2.776-1.468-11.4 4.325-10.2 7.36-9.964c4.594.357 4.278 4.385 3.32 10.5z" transform="translate(-463.883 -318.021)"/><path d="m772.976 319.037c1.693.683.482 2.738 1.5 2.925 1.814.334 2.129-4.461.6-5.507a2.191 2.191 0 0 0 -2.579-.238c-1.378.849-.24 2.531.479 2.82z" transform="translate(-665.203 -315.92)"/><path d="m335.337 386.459s10.35-4.166 10.9-13.072c.219-3.545-1.389-12.974-13.6-13.2s-20.656 10.911-21.774 17.843a25.06 25.06 0 0 0 -.3 5.54 22.007 22.007 0 0 0 1.14 5.659c.668 1.989 1.9 3.97 4.295 3.543 2.739-.488 2.415-2.059 1.688-3.267-.526-.873-2.787-4.67-1.589-11.563 1.43-8.225 8.843-15.2 16.379-14.733 5.845.366 10.324 5.425 7.635 12.964-2.163 6.064-9.439 8.8-12.2 9.637a65.168 65.168 0 0 1 3.862-9.785c2.691-5.807 2.73-6.814 1.762-7.534-1.535-1.141-4.152-1.386-7.005 3.857s-3.836 8.77-5.4 16.751c-1.33 6.807-3.256 15.374-5.28 20.146a27.515 27.515 0 0 0 -6.6-.788c-4.715.032-9.385 2.391-9.38 6.421.005 3.466 2.708 5.114 5.478 5.392 3.532.354 8.251-.194 12.736-5.177a12.888 12.888 0 0 0 1.319-1.775c1.5.464 3.244.982 5.491 1.523 7.659 1.842 16.805 1.264 20.945-6.076 4.775-8.449 1.391-18.737-10.502-22.306zm-28.776 31.212c-3.138-.193-3.579-1.748-3.621-2.715-.073-1.692 2.261-3.593 6.059-3.575a26 26 0 0 1 5.443.535c-1.849 2.798-4.814 5.944-7.881 5.755zm33.139-11.352c-4.747 7.438-14.149 5.426-18.822 4.187 2.336-5.343 3.655-12.765 5.361-18.875.322-1.154.609-2.175.874-3.1a27.522 27.522 0 0 1 6.552.571c4.794.924 11.401 8.807 6.035 17.217z" transform="translate(-299.878 -350.184)"/></g></svg>