<svg viewBox="0 0 20 20" xmlns="http://www.w3.org/2000/svg"><path d="m13.65 5.37a1 1 0 1 1 1 1 1 1 0 0 1 -1-1m-6.53 4.63a2.88 2.88 0 1 0 2.88-2.91 2.89 2.89 0 0 0 -2.88 2.91m-1.61 0a4.49 4.49 0 1 1 4.49 4.46 4.5 4.5 0 0 1 -4.49-4.46m-1.65-6.18a3.53 3.53 0 0 0 -.95 2.57v7.19a3.55 3.55 0 0 0 .95 2.6 3.65 3.65 0 0 0 2.56.91h7.16a3.65 3.65 0 0 0 2.56-.91 3.46 3.46 0 0 0 1-2.57v-7.22a3.61 3.61 0 0 0 -.95-2.53 3.5 3.5 0 0 0 -2.56-.95h-7.21a3.6 3.6 0 0 0 -2.56.91m2.56 14.88a5.09 5.09 0 0 1 -3.65-1.37 5 5 0 0 1 -1.47-3.75v-7.19a4.8 4.8 0 0 1 5.09-5.09h7.22a4.87 4.87 0 0 1 5.09 5.09v7.22a5 5 0 0 1 -1.44 3.72 5.15 5.15 0 0 1 -3.68 1.37z" fill="#3F4C60"/></svg>