<svg viewBox="0 0 20 20" xmlns="http://www.w3.org/2000/svg"><path d="m18.64 4.64a7.24 7.24 0 0 1 -2 .56 3.53 3.53 0 0 0 1.56-2 7.2 7.2 0 0 1 -2.25.86 3.54 3.54 0 0 0 -6.17 2.46 3.59 3.59 0 0 0 .09.81 10.09 10.09 0 0 1 -7.31-3.7 3.54 3.54 0 0 0 1.1 4.73 3.65 3.65 0 0 1 -1.61-.44v.08a3.55 3.55 0 0 0 2.85 3.44 3.61 3.61 0 0 1 -.94.12 3.71 3.71 0 0 1 -.67-.06 3.57 3.57 0 0 0 3.32 2.5 7.14 7.14 0 0 1 -4.41 1.48 7.89 7.89 0 0 1 -.84-.05 10 10 0 0 0 5.43 1.57 10 10 0 0 0 10.09-10.07c0-.15 0-.3 0-.45a7 7 0 0 0 1.77-1.84" fill="#3F4C60"/></svg>