<svg xmlns="http://www.w3.org/2000/svg" width="161.245" height="183" viewBox="0 0 161.245 183"><g transform="translate(-217.699 -235.99)"><g transform="translate(217.699 366.895)"><path d="M224.355,304.741l-.3,1.053H217.7V291.889h2.067v12.852Z" transform="translate(-217.699 -291.65)" fill="#fff4e7"/><path d="M220.957,298.98c0-4.631,1.67-7.193,4.392-7.193s4.411,2.562,4.411,7.193c0,4.608-1.689,7.191-4.411,7.191S220.957,303.588,220.957,298.98Zm6.5,3.1v-6.2c0-2.1-.716-3.041-2.107-3.041-1.351,0-2.088.936-2.088,3.041v6.2c0,2.1.737,3.038,2.088,3.038C226.74,305.117,227.456,304.184,227.456,302.079Z" transform="translate(-213.313 -291.787)" fill="#fff4e7"/><path d="M225.61,298.98c0-4.631,1.649-7.193,4.53-7.193a3.473,3.473,0,0,1,3.141,2.067l-.676.833h-.178c-.54-1.272-1.194-1.849-2.245-1.849-1.492,0-2.266.995-2.266,3.437v5.464c0,2.327.676,3.378,2.266,3.378a2.545,2.545,0,0,0,2.381-1.647h.162l.556.615a3.446,3.446,0,0,1-3.141,2.086C227.259,306.171,225.61,303.588,225.61,298.98Z" transform="translate(-207.05 -291.787)" fill="#fff4e7"/><path d="M235.589,302.894h-4.171l-.8,2.9H229.47l3.932-13.905h1.192l3.934,13.905H236.4Zm-.277-1.053-1.811-6.456-1.785,6.456Z" transform="translate(-201.854 -291.65)" fill="#fff4e7"/><path d="M238.508,292.94v12.854h-2.046V292.94h-3.1l.319-1.051h7.587l.319,1.051Z" transform="translate(-196.616 -291.65)" fill="#fff4e7"/><path d="M237.9,291.889h2.067v13.905H237.9Z" transform="translate(-190.511 -291.65)" fill="#fff4e7"/><path d="M239.954,298.98c0-4.631,1.67-7.193,4.392-7.193s4.411,2.562,4.411,7.193c0,4.608-1.689,7.191-4.411,7.191S239.954,303.588,239.954,298.98Zm6.5,3.1v-6.2c0-2.1-.716-3.041-2.107-3.041-1.351,0-2.086.936-2.086,3.041v6.2c0,2.1.734,3.038,2.086,3.038C245.737,305.117,246.453,304.184,246.453,302.079Z" transform="translate(-187.742 -291.787)" fill="#fff4e7"/><path d="M252.1,291.889v13.905h-.992L246,294.669v11.125h-1.112V291.889h2.086l4.033,8.76v-8.76Z" transform="translate(-181.101 -291.65)" fill="#fff4e7"/><path d="M252.057,298.407a4.838,4.838,0,0,1-2.522,3.855l-.357-.458a3.848,3.848,0,0,0,1.527-2.346,1.3,1.3,0,0,1-1.309-1.349,1.334,1.334,0,0,1,1.33-1.351C251.442,296.758,252.057,297.335,252.057,298.407Z" transform="translate(-175.325 -285.096)" fill="#fff4e7"/><path d="M260.377,304.741l-.3,1.053h-6.358V291.889h2.067v12.852Z" transform="translate(-169.21 -291.65)" fill="#fff4e7"/><path d="M256.979,298.98c0-4.631,1.67-7.193,4.394-7.193s4.408,2.562,4.408,7.193c0,4.608-1.687,7.191-4.408,7.191S256.979,303.588,256.979,298.98Zm6.5,3.1v-6.2c0-2.1-.716-3.041-2.1-3.041-1.354,0-2.088.936-2.088,3.041v6.2c0,2.1.734,3.038,2.088,3.038C262.762,305.117,263.478,304.184,263.478,302.079Z" transform="translate(-164.824 -291.787)" fill="#fff4e7"/><path d="M261.633,298.98c0-4.631,1.649-7.193,4.528-7.193a3.47,3.47,0,0,1,3.141,2.067l-.676.833h-.178c-.537-1.272-1.194-1.849-2.245-1.849-1.492,0-2.266.995-2.266,3.437v5.464c0,2.327.676,3.378,2.266,3.378a2.55,2.55,0,0,0,2.384-1.647h.16l.556.615a3.443,3.443,0,0,1-3.141,2.086C263.282,306.171,261.633,303.588,261.633,298.98Z" transform="translate(-158.56 -291.787)" fill="#fff4e7"/><path d="M271.612,302.894h-4.174l-.8,2.9h-1.152l3.934-13.905h1.192l3.934,13.905h-2.126Zm-.279-1.053-1.809-6.456-1.788,6.456Z" transform="translate(-153.367 -291.65)" fill="#fff4e7"/><path d="M274.53,292.94v12.854h-2.046V292.94h-3.1l.319-1.051h7.587l.319,1.051Z" transform="translate(-148.125 -291.65)" fill="#fff4e7"/><path d="M273.92,291.889h2.067v13.905H273.92Z" transform="translate(-142.02 -291.65)" fill="#fff4e7"/><path d="M275.977,298.98c0-4.631,1.668-7.193,4.392-7.193s4.411,2.562,4.411,7.193c0,4.608-1.689,7.191-4.411,7.191S275.977,303.588,275.977,298.98Zm6.5,3.1v-6.2c0-2.1-.716-3.041-2.1-3.041-1.354,0-2.088.936-2.088,3.041v6.2c0,2.1.734,3.038,2.088,3.038C281.758,305.117,282.473,304.184,282.473,302.079Z" transform="translate(-139.251 -291.787)" fill="#fff4e7"/><path d="M288.122,291.889v13.905h-.99l-5.107-11.125v11.125H280.91V291.889H283l4.033,8.76v-8.76Z" transform="translate(-132.611 -291.65)" fill="#fff4e7"/><path d="M288.081,298.407a4.844,4.844,0,0,1-2.522,3.855l-.359-.458a3.862,3.862,0,0,0,1.53-2.346,1.3,1.3,0,0,1-1.311-1.349,1.335,1.335,0,0,1,1.33-1.351C287.464,296.758,288.081,297.335,288.081,298.407Z" transform="translate(-126.836 -285.096)" fill="#fff4e7"/><path d="M242.368,312.778l-.3,1.056h-6.358V299.926h2.067v12.852Z" transform="translate(-193.452 -280.831)" fill="#fff4e7"/><path d="M238.97,307.017c0-4.631,1.67-7.193,4.392-7.193s4.411,2.562,4.411,7.193c0,4.608-1.689,7.191-4.411,7.191S238.97,311.625,238.97,307.017Zm6.5,3.1v-6.2c0-2.1-.713-3.04-2.1-3.04-1.351,0-2.088.936-2.088,3.04v6.2c0,2.1.737,3.038,2.088,3.038C244.753,313.155,245.466,312.221,245.466,310.116Z" transform="translate(-189.066 -280.968)" fill="#fff4e7"/><path d="M243.623,307.017c0-4.631,1.649-7.193,4.53-7.193a3.475,3.475,0,0,1,3.141,2.067l-.678.835h-.178c-.537-1.272-1.192-1.851-2.245-1.851-1.49,0-2.266.995-2.266,3.437v5.464c0,2.327.678,3.378,2.266,3.378a2.547,2.547,0,0,0,2.384-1.647h.159l.558.615a3.448,3.448,0,0,1-3.141,2.086C245.272,314.208,243.623,311.625,243.623,307.017Z" transform="translate(-182.803 -280.968)" fill="#fff4e7"/><path d="M253.6,310.932h-4.174l-.793,2.9h-1.154l3.934-13.908h1.192l3.934,13.908h-2.126Zm-.277-1.053-1.811-6.456-1.788,6.456Z" transform="translate(-177.608 -280.831)" fill="#fff4e7"/><path d="M256.519,300.977v12.857h-2.046V300.977h-3.1l.319-1.051h7.587l.319,1.051Z" transform="translate(-172.369 -280.831)" fill="#fff4e7"/><path d="M255.91,299.926h2.067v13.908H255.91Z" transform="translate(-166.263 -280.831)" fill="#fff4e7"/><path d="M257.967,307.017c0-4.631,1.67-7.193,4.392-7.193s4.411,2.562,4.411,7.193c0,4.608-1.689,7.191-4.411,7.191S257.967,311.625,257.967,307.017Zm6.5,3.1v-6.2c0-2.1-.713-3.04-2.1-3.04-1.351,0-2.088.936-2.088,3.04v6.2c0,2.1.737,3.038,2.088,3.038C263.75,313.155,264.463,312.221,264.463,310.116Z" transform="translate(-163.495 -280.968)" fill="#fff4e7"/><path d="M270.113,299.926v13.908h-.992l-5.107-11.128v11.128H262.9V299.926h2.088l4.033,8.76v-8.76Z" transform="translate(-156.856 -280.831)" fill="#fff4e7"/><path d="M269.946,302.869a1.339,1.339,0,0,1-1.351,1.349,1.351,1.351,0,0,1,0-2.7A1.338,1.338,0,0,1,269.946,302.869Zm0,7.688a1.339,1.339,0,0,1-1.351,1.349,1.35,1.35,0,1,1,1.351-1.349Z" transform="translate(-150.954 -278.688)" fill="#fff4e7"/><path d="M222.984,307.963h6.32l.3,1.051h-4.551v5.049h3.339v1.072h-3.339v5.68h4.889l-.3,1.056h-6.656Z" transform="translate(-210.585 -270.013)" fill="#fff4e7"/><path d="M232.811,318.968H228.64l-.8,2.9H226.69l3.934-13.908h1.192l3.934,13.908h-2.126Zm-.277-1.053-1.811-6.456-1.788,6.456Z" transform="translate(-205.596 -270.013)" fill="#fff4e7"/><path d="M231.158,320.476l.655-.894h.181a3.161,3.161,0,0,0,2.721,1.609,1.978,1.978,0,0,0,2.226-2.1c0-3.378-5.344-3.618-5.344-7.709a3.391,3.391,0,0,1,3.674-3.517,3.525,3.525,0,0,1,3,1.391l-.6.915h-.2a2.471,2.471,0,0,0-2.208-1.253c-1.152,0-1.947.577-1.947,1.729,0,2.879,5.405,3.317,5.405,7.688a3.718,3.718,0,0,1-3.974,3.913A4.264,4.264,0,0,1,231.158,320.476Z" transform="translate(-199.582 -270.15)" fill="#fff4e7"/><path d="M240,309.014v12.857h-2.046V309.014h-3.1l.319-1.051h7.59l.317,1.051Z" transform="translate(-194.604 -270.013)" fill="#fff4e7"/><path d="M239.392,307.963h6.318l.3,1.051h-4.551v5.049H244.8v1.072h-3.339v5.68h4.887l-.3,1.056h-6.656Z" transform="translate(-188.498 -270.013)" fill="#fff4e7"/><path d="M249.6,321.871l-2.264-6.1H245.6v6.1h-2.067V307.963h3.815c2.365,0,4.035.854,4.035,3.833,0,2.147-.774,3.219-2.067,3.7l2.522,6.379ZM245.6,314.7h1.708c1.272,0,1.83-.615,1.83-2.264v-1.211c0-1.652-.558-2.208-1.79-2.208H245.6Z" transform="translate(-182.917 -270.013)" fill="#fff4e7"/><path d="M255.449,307.963v13.908h-.992l-5.107-11.128v11.128h-1.114V307.963h2.088l4.033,8.76v-8.76Z" transform="translate(-176.595 -270.013)" fill="#fff4e7"/><path d="M265.119,307.963v13.908h-2.027V310.982l-3.256,10.888h-.718l-3.238-10.83v10.83h-1.112V307.963h2.3l2.921,9.774,2.921-9.774Z" transform="translate(-167.801 -270.013)" fill="#fff4e7"/><path d="M266.328,318.968h-4.171l-.8,2.9h-1.152l3.934-13.908h1.192l3.932,13.908h-2.123Zm-.277-1.053-1.809-6.456-1.788,6.456Z" transform="translate(-160.477 -270.013)" fill="#fff4e7"/><path d="M271.16,321.871l-2.264-6.1h-1.731v6.1H265.1V307.963h3.815c2.362,0,4.033.854,4.033,3.833,0,2.147-.774,3.219-2.067,3.7l2.524,6.379Zm-4-7.174h1.71c1.272,0,1.828-.615,1.828-2.264v-1.211c0-1.652-.556-2.208-1.788-2.208h-1.75Z" transform="translate(-153.893 -270.013)" fill="#fff4e7"/><path d="M273.117,315.154l-1.253,2.008v4.709H269.8V307.963h2.067v7.212l4.469-7.212H277.6l-3.177,5.086,3.873,8.821h-2.325Z" transform="translate(-147.57 -270.013)" fill="#fff4e7"/><path d="M274.366,307.963h6.32l.3,1.051h-4.551v5.049h3.339v1.072h-3.339v5.68h4.887l-.3,1.056h-6.656Z" transform="translate(-141.42 -270.013)" fill="#fff4e7"/><path d="M283.065,309.014v12.857h-2.046V309.014h-3.1l.319-1.051h7.587l.319,1.051Z" transform="translate(-136.636 -270.013)" fill="#fff4e7"/></g><g transform="translate(260.799 235.99)"><path d="M316.152,276.031c0,22.114-39.818,68.8-39.818,68.8s-40.264-46.685-40.264-68.8a40.041,40.041,0,0,1,80.082,0Z" transform="translate(-236.07 -235.99)" fill="#368cbb"/><path d="M0,0H47.35V40.511H0Z" transform="translate(16.054 25.676)" fill="#fff4e7"/><path d="M262.774,259.2c-.328-4.326-4.26-7.742-9.063-7.742s-8.737,3.416-9.065,7.742h-.023v22.166H262.8V259.2Z" transform="translate(-224.558 -215.174)" fill="#3f4c60"/><path d="M271.793,259.2c-.331-4.326-4.261-7.742-9.065-7.742s-8.734,3.416-9.065,7.742h-.023v22.166h18.177V259.2Z" transform="translate(-212.42 -215.174)" fill="#3f4c60"/><rect width="51.278" height="1.821" transform="translate(14.402 33.102)" fill="#3f4c60"/><path d="M293.487,253.635H242.209v-1.821l25.639-9.737,25.639,9.737Z" transform="translate(-227.806 -227.797)" fill="#fff4e7"/><g transform="translate(20.063 27.876)"><rect width="2.522" height="2.522" fill="#3f4c60"/><rect width="2.522" height="2.522" transform="translate(36.812)" fill="#3f4c60"/><rect width="2.522" height="2.522" transform="translate(32.722)" fill="#3f4c60"/><rect width="2.522" height="2.522" transform="translate(28.631)" fill="#3f4c60"/><rect width="2.522" height="2.522" transform="translate(24.541)" fill="#3f4c60"/><rect width="2.522" height="2.522" transform="translate(20.451)" fill="#3f4c60"/><rect width="2.522" height="2.522" transform="translate(16.361)" fill="#3f4c60"/><rect width="2.522" height="2.522" transform="translate(12.271)" fill="#3f4c60"/><rect width="2.522" height="2.522" transform="translate(8.18)" fill="#3f4c60"/><rect width="2.522" height="2.522" transform="translate(4.09)" fill="#3f4c60"/></g></g></g></svg>